<svg xmlns="http://www.w3.org/2000/svg"><symbol id="encrypted-data" viewBox="0 0 256 256"><title>encrypted-data</title><path d="M109.1 11.2H107v-2c0-1.5-1.3-2.8-2.8-2.8s-2.8 1.3-2.8 2.8v2.1h-2.1c-1.5 0-2.8 1.3-2.8 2.8s1.3 2.8 2.8 2.8h2.1V19c0 1.5 1.3 2.8 2.8 2.8s2.8-1.3 2.8-2.8v-2.1h2.1c1.5 0 2.8-1.3 2.8-2.8 0-1.6-1.2-2.9-2.8-2.9z" fill="#ef4460"/><circle cx="138" cy="3" fill="#70d6f9" r="3"/><path d="M241.4 37.5H158c7.9 3.4 16.1 6.3 24.5 8.6 2.5.7 4.2 3 4.2 5.6v28.6c0 34.2-18.9 65.7-49.5 83.6-5.8 3.4-13 3.4-18.8 0-30.5-17.8-49.5-49.3-49.5-83.6V51.7c0-2.6 1.7-4.9 4.2-5.6 8.3-2.3 16.5-5.1 24.5-8.6h-83C7.9 37.6 2.5 43 2.5 49.7v150c0 6.7 5.4 12.1 12.1 12.1h226.7c6.7 0 12.1-5.4 12.1-12.1v-150c.1-6.7-5.3-12.1-12-12.2z" fill="#3a70bf"/><path d="M161.3 241.4H94.7c-3.3 0-5.9 2.7-5.8 6 0 3.2 2.6 5.8 5.8 5.8h66.5c3.3 0 5.9-2.7 5.8-6 0-3.2-2.5-5.8-5.7-5.8z" fill="#edf4fc"/><path d="M102.3 211.9h51.5v29.5h-51.5z" fill="#c7d7e5"/><path d="M2.5 187.7v12c0 6.7 5.4 12.1 12.1 12.1h226.7c6.7 0 12.1-5.4 12.1-12.1v-12z" fill="#edf4fc"/><path d="M241.4 48.3h-55.9c.7 1 1.1 2.2 1.1 3.5v28.6c0 34.2-18.9 65.7-49.5 83.6-5.8 3.4-13 3.4-18.8 0-30.5-17.8-49.5-49.3-49.5-83.6V51.7c0-1.2.4-2.5 1.1-3.5H14.6c-.8 0-1.4.6-1.4 1.4v138h229.5v-138c.1-.7-.6-1.3-1.3-1.3z" fill="#ef4460"/><path d="M13.2 176.8h229.5v10.9H13.2z" fill="#3caadc"/><path d="M13.2 176.8h22.3v10.9H13.2zm189.5 64.4c-4-.7-7.1-3.8-7.9-7.7 0-.1-.1-.2-.2-.1-.1 0-.1.1-.1.1-.8 4-3.9 7-7.9 7.7-.1 0-.2.1-.1.2 0 .1.1.1.1.1 4 .7 7.1 3.8 7.9 7.7 0 .1.1.2.2.1.1 0 .1-.1.1-.1.8-4 3.9-7 7.9-7.7.1 0 .2-.1.1-.2.1 0 0 0-.1-.1z" fill="#f5c84c"/><circle cx="72" cy="233" fill="#5290db" r="3"/><circle cx="178" cy="226.3" fill="#b2e26d" r="3"/><path d="M196.2 89.1c-1.4 0-2.5-1.1-2.5-2.5 0-.7.3-1.3.8-1.8L206.7 73c.5-.5 1.1-.7 1.7-.7h14.4c1.4 0 2.5 1.1 2.5 2.5s-1.1 2.5-2.5 2.5h-13.4l-11.5 11.1c-.4.4-1.1.7-1.7.7zm27.1 58.7h-14.4c-.6 0-1.3-.3-1.7-.7L195 135.3c-1-1-1-2.5-.1-3.5s2.5-1 3.5-.1l11.5 11.1h13.4c1.4 0 2.5 1.1 2.5 2.5s-1.1 2.5-2.5 2.5zm-1-35.3h-26.6c-1.4 0-2.5-1.1-2.5-2.5s1.1-2.5 2.5-2.5h26.6c1.4 0 2.5 1.1 2.5 2.5s-1.1 2.5-2.5 2.5zM59.8 89.1c1.4 0 2.5-1.1 2.5-2.5 0-.7-.3-1.3-.8-1.8L49.3 72.9c-.5-.5-1.1-.7-1.7-.7H33.2c-1.4 0-2.5 1.1-2.5 2.5s1.1 2.5 2.5 2.5h13.4l11.5 11.1c.4.5 1.1.8 1.7.8zm-27.1 58.7h14.4c.6 0 1.3-.3 1.7-.7L61 135.3c1-1 1-2.5.1-3.5-1-1-2.5-1-3.5-.1l-11.5 11.1H32.7c-1.4 0-2.5 1.1-2.5 2.5s1.1 2.5 2.5 2.5zm1-35.3h26.6c1.4 0 2.5-1.1 2.5-2.5s-1.1-2.5-2.5-2.5H33.7c-1.4 0-2.5 1.1-2.5 2.5s1.1 2.5 2.5 2.5z" fill="#fc657e"/><path d="M186.6 51.7c0-2.6-1.7-4.9-4.2-5.6-18.8-5.4-35-11.4-46.8-23.9-4.1-4.4-10.9-4.6-15.3-.6l-.6.6c-11.8 12.5-28 18.5-46.8 23.9-2.5.7-4.2 3-4.2 5.6v28.6c0 34.2 18.9 65.7 49.5 83.6 5.8 3.4 13 3.4 18.8 0 30.5-17.8 49.5-49.3 49.5-83.6V51.7z" fill="#edf4fc"/><path d="M176 53.8c-16.7-5-33.9-11.5-46.8-25.1l-1.4-1.5-1.4 1.5c-12.9 13.6-30.1 20.1-46.8 25.1l-1.6.4v26.1c0 30.9 16.8 59.2 44.9 75.6 3 1.7 6.6 1.7 9.6 0 28.1-16.4 44.9-44.7 44.9-75.6V54.2z" fill="#c7d7e5"/><path d="M94.4 77.7h66.7c1.7 0 3.1 1.4 3.1 3.1v19.4c0 1.7-1.4 3.1-3.1 3.1H94.4c-1.7 0-3.1-1.4-3.1-3.1V80.8c0-1.7 1.4-3.1 3.1-3.1z" fill="#ef4460"/><path d="M241.4 35h-82.9c-8.3-3.8-15.2-8.4-21.1-14.5-5-5.4-13.4-5.7-18.8-.7-.2.2-.5.4-.7.7-5.8 6.2-12.7 10.7-21.1 14.5H14.6C6.6 35.1 0 41.6 0 49.7v150c0 8.1 6.6 14.6 14.6 14.6h85.1v24.5h-5c-4.6 0-8.4 3.8-8.4 8.4s3.8 8.4 8.4 8.4h66.5c4.6 0 8.4-3.8 8.4-8.4s-3.8-8.4-8.4-8.4h-5v-24.5h85.1c8.1 0 14.6-6.6 14.6-14.6v-150c.1-8.1-6.5-14.6-14.5-14.7zM121.6 23.9c3.1-3.4 8.3-3.6 11.7-.5.2.1.3.3.5.5 12.5 13.3 30.2 19.5 47.9 24.6 1.4.4 2.4 1.7 2.4 3.2v28.6c0 33.3-18 63.8-48.2 81.4-5 2.9-11.3 2.9-16.3 0-30.2-17.6-48.2-48.1-48.2-81.4V51.7c0-1.5 1-2.8 2.4-3.2 17.5-5 35.3-11.2 47.8-24.6zm67.5 26.9h51.2v123.6H15.7V50.8h50.7c0 .1-.1.6-.1 1v28.6c0 35.1 19 67.2 50.7 85.7 6.6 3.8 14.8 3.8 21.4 0 31.7-18.5 50.7-50.6 50.7-85.7V50.8zm51.2 128.6v5.9H38v-5.9zm-207.3 0v5.9H15.7v-5.9zM5 49.7c0-5.3 4.3-9.6 9.6-9.6h69.6c-4 1.4-7.8 2.5-11.8 3.7a9.4 9.4 0 00-3.5 2H14.6c-2.2 0-3.9 1.7-3.9 3.9v135.5H5zm156.3 194.2c1.9 0 3.4 1.5 3.4 3.4s-1.5 3.4-3.4 3.4H94.7c-1.9 0-3.4-1.5-3.4-3.4s1.5-3.4 3.4-3.4zm-56.5-5v-24.5h46.5v24.5zM251 199.7c0 5.3-4.3 9.6-9.6 9.6H14.6c-5.3 0-9.6-4.3-9.6-9.6v-9.5h246zm0-14.5h-5.7V49.7c0-2.2-1.7-3.9-3.9-3.9h-54.8c-1-1-2.2-1.7-3.5-2-4-1.2-7.8-2.3-11.8-3.7h70.1c5.3 0 9.6 4.3 9.6 9.6z"/><path d="M130.9 197h-5.7c-1.4 0-2.5 1.1-2.5 2.5s1.1 2.5 2.5 2.5h5.7c1.4 0 2.5-1.1 2.5-2.5s-1.2-2.5-2.5-2.5zM75.5 54.2v26.1c0 31.8 17.3 60.9 46.2 77.8 3.7 2.2 8.4 2.2 12.1 0 28.9-16.9 46.2-46 46.2-77.8V54.2c0-1.1-.7-2.1-1.8-2.4-1-.5-32.3-8.1-47.5-25.1-.5-.6-1-1.1-1.6-1.5-.9-.6-2-.6-2.8 0-.6.4-1.1.9-1.5 1.5-15.2 17-45.6 24.5-47.5 25.2-1.1.3-1.8 1.2-1.8 2.3zm5 1.9c31.4-9.4 42.9-20.6 47.2-25.2 4.2 4.6 15.6 15.7 47.2 25.2v24.3c0 30-16.3 57.5-43.7 73.5a6.95 6.95 0 01-7.1 0c-27.3-16-43.7-43.4-43.7-73.5V56.1z"/><path d="M166.7 100.2V80.8c0-3.1-2.5-5.6-5.6-5.6H94.4c-3.1 0-5.6 2.5-5.6 5.6v19.4c0 3.1 2.5 5.6 5.6 5.6h66.7c3.1 0 5.6-2.5 5.6-5.6zm-72.9 0V80.8c0-.3.3-.6.6-.6h66.7c.3 0 .6.3.6.6v19.4c0 .3-.3.6-.6.6H94.4c-.3 0-.6-.3-.6-.6z"/><path d="M109.7 85.6c-1-1-2.6-1-3.5 0l-1.4 1.4-1.4-1.4c-1-1-2.5-1-3.5 0s-1 2.5 0 3.5l1.4 1.4-1.4 1.4c-1 1-1 2.5 0 3.5s2.5 1 3.5 0l1.4-1.4 1.4 1.4c1 1 2.5 1 3.5 0s1-2.5 0-3.5l-1.4-1.4 1.4-1.4c1-1 1-2.6 0-3.5zm15.3 0c-1-1-2.6-1-3.5 0l-1.4 1.4-1.4-1.4c-1-1-2.6-.9-3.5 0-.9 1-.9 2.5 0 3.5l1.4 1.4-1.4 1.4c-1 1-1 2.5 0 3.5s2.5 1 3.5 0l1.4-1.4 1.4 1.4c1 1 2.5 1 3.5 0s1-2.5 0-3.5l-1.4-1.4 1.4-1.4c1-1 1-2.6 0-3.5zm15.3 0c-1-1-2.6-1-3.5 0l-1.4 1.4-1.4-1.4c-1-1-2.5-1-3.5 0s-1 2.5 0 3.5l1.4 1.4-1.4 1.4c-1 1-1 2.5 0 3.5s2.5 1 3.5 0l1.4-1.4 1.4 1.4c1 1 2.5 1 3.5 0s1-2.5 0-3.5l-1.4-1.4 1.4-1.4c1-1 1-2.6 0-3.5zm15.4 0c-1-1-2.6-1-3.5 0l-1.4 1.4-1.4-1.4c-1-1-2.5-1-3.5 0s-1 2.5 0 3.5l1.4 1.4-1.4 1.4c-1 1-1 2.5 0 3.5s2.5 1 3.5 0l1.4-1.4 1.4 1.4c1 1 2.5 1 3.5 0s1-2.5 0-3.5l-1.4-1.4 1.4-1.4c1-1 1-2.6 0-3.5z"/></symbol><symbol id="webpack" viewBox="0 0 1200 1200"><title>webpack</title><path fill="#FFF" d="M600 0l530.3 300v600L600 1200 69.7 900V300z"/><path fill="#8ED6FB" d="M1035.6 879.3l-418.1 236.5V931.6L878 788.3l157.6 91zm28.6-25.9V358.8l-153 88.3V765l153 88.4zm-901.5 25.9l418.1 236.5V931.6L320.3 788.3l-157.6 91zm-28.6-25.9V358.8l153 88.3V765l-153 88.4zM152 326.8L580.8 84.2v178.1L306.1 413.4l-2.1 1.2-152-87.8zm894.3 0L617.5 84.2v178.1l274.7 151.1 2.1 1.2 152-87.8z" class="st1"/><path fill="#1C78C0" d="M580.8 889.7l-257-141.3v-280l257 148.4v272.9zm36.7 0l257-141.3v-280l-257 148.4v272.9zm-18.3-283.6zM341.2 436l258-141.9 258 141.9-258 149-258-149z"/></symbol></svg>